<?xml version="1.0" encoding="UTF-8" standalone="no"?>
<!-- Created with Inkscape (http://www.inkscape.org/) -->

<svg
   width="116.69383mm"
   height="117.35318mm"
   viewBox="0 0 116.69383 117.35318"
   version="1.1"
   id="svg4279"
   xml:space="preserve"
   inkscape:version="1.2.2 (732a01da63, 2022-12-09)"
   sodipodi:docname="biospherelogo.svg"
   inkscape:export-filename="../Documents/biosphere/biospherelogo.svg"
   inkscape:export-xdpi="96"
   inkscape:export-ydpi="96"
   xmlns:inkscape="http://www.inkscape.org/namespaces/inkscape"
   xmlns:sodipodi="http://sodipodi.sourceforge.net/DTD/sodipodi-0.dtd"
   xmlns="http://www.w3.org/2000/svg"
   xmlns:svg="http://www.w3.org/2000/svg"><sodipodi:namedview
     id="namedview4281"
     pagecolor="#ffffff"
     bordercolor="#666666"
     borderopacity="1.0"
     inkscape:showpageshadow="2"
     inkscape:pageopacity="0.0"
     inkscape:pagecheckerboard="0"
     inkscape:deskcolor="#d1d1d1"
     inkscape:document-units="mm"
     showgrid="false"
     inkscape:zoom="1.1893044"
     inkscape:cx="11.351173"
     inkscape:cy="184.98208"
     inkscape:window-width="1500"
     inkscape:window-height="921"
     inkscape:window-x="-7"
     inkscape:window-y="-7"
     inkscape:window-maximized="1"
     inkscape:current-layer="layer1" /><defs
     id="defs4276" /><g
     inkscape:label="Layer 1"
     inkscape:groupmode="layer"
     id="layer1"
     transform="translate(-12.559555,-12.448623)"><path
       style="fill:#000000;stroke-width:0.264583"
       d="m 111.9985,129.47017 c -2.9875,-0.83233 -5.03828,-2.62467 -6.73239,-5.88395 -0.51055,-0.98224 -1.73098,-3.92901 -2.71205,-6.54839 -4.080549,-10.89465 -7.969669,-16.45393 -15.305359,-21.878125 -1.18481,-0.87608 -2.2038,-1.63994 -2.26444,-1.69747 -0.0606,-0.0575 8.9498,-0.10461 20.023179,-0.10461 h 20.13342 l 0.57744,1.52136 c 0.89887,2.36823 2.28735,8.133675 2.64175,10.969505 0.47192,3.77614 0.21511,10.60882 -0.50012,13.30601 -1.25988,4.7511 -3.68094,8.21997 -6.83818,9.79767 -1.38274,0.69096 -1.82681,0.77227 -4.57412,0.83755 -2.07896,0.0494 -3.48818,-0.0518 -4.44913,-0.31955 z m -35.370659,-0.0393 c -12.03805,-0.9752 -17.85371,-4.42837 -20.52622,-12.18789 -1.20091,-3.48679 -1.30005,-5.26444 -1.2952,-23.223875 l 0.005,-16.93333 0.72197,2.12864 c 0.98228,2.89614 2.22437,4.88711 4.44737,7.12876 2.73169,2.75461 5.16338,4.25383 13.80932,8.51393 8.70272,4.28806 12.91262,6.911215 16.00215,9.970815 5.56979,5.51584 8.57537,12.69389 9.11061,21.7584 l 0.15761,2.66931 -3.25398,0.17496 c -3.17578,0.17077 -17.07123,0.17096 -19.1782,2.7e-4 z m -51.371082,-0.46571 c -9.094602,-1.72533 -13.556321,-6.75363 -12.560224,-14.1552 0.428071,-3.18082 1.199991,-4.93539 2.921734,-6.6411 1.808911,-1.79206 3.868097,-2.87385 9.548116,-5.01609 11.269893,-4.250455 16.920641,-8.328445 22.520999,-16.252765 l 1.2915,-1.82743 v 20.383295 20.38331 l -3.241145,1.07229 c -5.073708,1.67856 -8.27817,2.21689 -13.824479,2.32239 -3.260172,0.062 -5.359961,-0.0228 -6.656501,-0.2687 z M 13.064006,86.983005 c 0.09185,-10.15361 0.197174,-13.00944 0.552895,-14.99114 1.689982,-9.41479 5.636462,-14.19929 13.401568,-16.24736 2.20654,-0.58198 2.585799,-0.59472 20.108332,-0.67526 l 17.85937,-0.0821 -2.23116,0.78303 c -4.04113,1.41823 -7.3623,4.22454 -10.262709,8.67175 -0.779407,1.19506 -3.058845,5.54084 -5.065418,9.65729 -3.723503,7.63869 -5.407073,10.61831 -7.639325,13.52024 -5.515631,7.17031 -13.637702,11.19167 -23.705656,11.73701 l -3.131358,0.16962 z m 64.962265,0.0494 c 3.21121,-0.93509 5.02299,-2.06732 7.86199,-4.91316 3.20616,-3.2139 4.68,-5.60384 8.65166,-14.02931 3.05196,-6.4744 4.98717,-9.91122 7.336089,-13.02848 5.58168,-7.40745 13.34183,-11.25999 24.41472,-12.12073 l 2.30247,-0.17898 0.17009,0.67767 c 0.0935,0.37273 0.11085,6.01204 0.0384,12.53181 -0.13491,12.14929 -0.26637,13.88861 -1.36582,18.07184 -1.55467,5.91529 -5.22159,10.13871 -10.34796,11.9184 -4.04594,1.4046 -3.75466,1.38583 -22.865319,1.47338 -17.66987,0.081 -17.84173,0.0767 -16.19636,-0.40244 z m 8.7059,-22.64663 c -0.11794,-0.58209 -0.75315,-2.17505 -1.4116,-3.53992 -0.98412,-2.03997 -1.5816,-2.86775 -3.35745,-4.6516 -2.95833,-2.97168 -5.16227,-4.33941 -14.06653,-8.72948 -4.26997,-2.10523 -8.93658,-4.61848 -10.52222,-5.66685 -9.092336,-6.01157 -13.695048,-14.28967 -14.435892,-25.96335 l -0.183259,-2.88765 7.543604,-0.0775 c 13.724157,-0.14093 19.683517,0.27051 24.275037,1.67597 7.20019,2.20398 11.15234,7.2648 12.24439,15.67923 0.33069,2.54808 0.24689,35.80456 -0.0861,34.16109 z m 6.2411,-27.50739 0.0587,-20.36364 2.92995,-0.98651 c 5.933909,-1.99793 12.898689,-2.92171 18.007619,-2.38846 3.75289,0.39171 5.83025,0.92896 8.48922,2.19552 5.04124,2.4013 7.34332,6.56381 6.68432,12.08628 -0.33495,2.80692 -0.64953,3.76424 -1.79003,5.44721 -1.77274,2.61596 -3.78889,3.82497 -10.64088,6.38094 -5.5455,2.06861 -8.51008,3.47928 -11.68875,5.56197 -3.14678,2.0618 -7.684979,6.36575 -9.845549,9.33736 -0.81363,1.11905 -1.65574,2.27276 -1.87135,2.5638 -0.34732,0.46883 -0.38533,-1.79283 -0.33329,-19.83447 z m -76.873069,10.50789 c -2.24901,-6.07814 -3.371683,-13.74341 -2.83947,-19.38705 0.836038,-8.86544 4.300052,-14.13032 10.117922,-15.37803 1.698773,-0.36432 5.173549,-0.12655 6.95824,0.47613 4.027672,1.36014 5.812919,3.79237 8.871606,12.08672 4.122388,11.17884 8.465115,17.22067 16.387711,22.79947 l 1.68809,1.1887 H 37.022666 16.761029 Z"
       id="path4295" /></g></svg>
